<?xml version="1.0" encoding="UTF-8" standalone="no"?><!-- Generator: Gravit.io --><svg xmlns="http://www.w3.org/2000/svg" xmlns:xlink="http://www.w3.org/1999/xlink" style="isolation:isolate" viewBox="0 0 119.545 148.3" width="119.545pt" height="148.3pt"><g><g><path d=" M 115.233 95.6 C 114.768 95.472 114.293 95.385 113.813 95.34 C 111.449 95.258 109.105 95.785 107.003 96.87 C 106.855 92.499 104.995 88.361 101.823 85.35 L 106.483 78.55 C 112.673 83.21 115.543 88.82 115.253 95.55 M 91.883 133 C 82.303 138.29 72.973 134.9 69.113 133 L 73.233 127 C 75.311 128.127 77.639 128.714 80.003 128.71 C 88.093 128.71 96.543 122.59 102.673 118.16 L 103.343 117.67 C 108.833 113.67 112.443 113.51 113.673 113.59 C 113.403 116.47 113.193 118.87 113.073 120.22 C 105.593 123.92 92.363 132.69 91.913 133 M 102.683 99.56 C 101.492 100.422 100.347 101.347 99.253 102.33 C 90.643 110.09 86.743 112.73 83.253 112.46 L 99.363 88.9 C 101.253 90.84 103.223 94.25 102.653 99.56 M 80.653 116.25 C 81.643 116.567 82.674 116.739 83.713 116.76 C 88.893 116.76 93.993 112.76 102.093 105.47 C 108.613 99.58 112.883 99.07 114.953 99.83 C 114.663 102.92 114.353 106.25 114.063 109.36 C 111.953 109.2 107.333 109.58 100.873 114.24 L 100.203 114.72 C 92.973 119.96 83.283 126.86 75.753 123.4 L 80.653 116.25 Z  M 18.053 72.74 L 59.753 7.84 L 103.233 75.78 L 58.833 140.55 L 18.053 72.74 Z  M 27.793 133.09 C 27.203 132.7 14.003 123.92 6.503 120.22 C 6.383 118.87 6.163 116.47 5.893 113.59 C 7.133 113.51 10.753 113.72 16.223 117.67 L 16.873 118.15 C 23.003 122.59 31.453 128.71 39.563 128.71 C 41.758 128.72 43.925 128.221 45.893 127.25 L 49.593 133.4 C 45.303 135.28 36.523 137.91 27.793 133.09 Z  M 20.313 102.33 C 19.217 101.35 18.072 100.425 16.883 99.56 C 16.123 92.4 19.983 88.73 21.883 87.4 L 36.883 112.4 C 33.203 113.05 29.373 110.58 20.243 102.4 M 17.413 105.54 C 25.513 112.84 30.603 116.83 35.783 116.83 C 36.928 116.8 38.062 116.59 39.143 116.21 L 43.563 123.56 C 36.063 126.82 26.463 119.99 19.283 114.79 L 18.633 114.32 C 12.183 109.65 7.563 109.32 5.443 109.43 C 5.153 106.31 4.843 102.98 4.553 99.9 C 6.623 99.13 10.893 99.66 17.413 105.54 Z  M 15.613 76.91 L 19.733 83.75 C 15.377 86.732 12.705 91.614 12.543 96.89 C 10.439 95.801 8.091 95.267 5.723 95.34 C 5.257 95.386 4.796 95.47 4.343 95.59 C 4.063 86.91 10.003 80.75 15.613 76.91 Z  M 4.303 52.79 C 4.768 52.917 5.243 53.004 5.723 53.05 C 5.933 53.05 6.153 53.05 6.363 53.05 C 8.516 52.978 10.626 52.432 12.543 51.45 C 12.684 56.29 14.943 60.824 18.723 63.85 L 14.323 70.7 C 7.273 65.9 4.003 60 4.303 52.79 Z  M 39.073 32.21 C 32.643 30.21 27.243 34.13 17.483 42.92 C 11.003 48.8 6.703 49.32 4.623 48.55 C 4.913 45.47 5.223 42.13 5.513 39.01 C 5.765 39.043 6.019 39.063 6.273 39.07 C 8.643 39.07 12.953 38.31 18.693 34.15 L 19.363 33.67 C 26.563 28.46 36.213 21.59 43.733 24.95 L 39.073 32.21 Z  M 21.003 60.28 C 19.003 58.57 16.233 55 16.883 48.84 C 18.074 47.974 19.219 47.046 20.313 46.06 C 29.193 38.06 33.063 35.51 36.643 35.98 L 21.003 60.28 Z  M 27.623 15.39 C 36.843 10.29 45.893 13.26 50.003 15.16 L 46.083 21.26 C 36.253 16.26 24.673 24.59 16.863 30.26 L 16.193 30.73 C 10.733 34.73 7.113 34.89 5.873 34.82 C 6.143 31.94 6.363 29.54 6.483 28.19 C 14.003 24.47 27.193 15.7 27.643 15.39 M 91.733 15.3 C 92.333 15.69 105.563 24.47 113.043 28.18 C 113.163 29.53 113.373 31.93 113.643 34.81 C 112.413 34.89 108.803 34.69 103.313 30.72 L 102.643 30.23 C 94.813 24.57 83.203 16.23 73.383 21.28 L 69.473 15.18 C 73.563 13.27 82.613 10.25 91.733 15.3 Z  M 99.213 46.06 C 100.312 47.044 101.46 47.972 102.653 48.84 C 103.313 55.1 100.463 58.69 98.403 60.37 L 82.793 36 C 86.403 35.47 90.273 38 99.213 46.07 M 102.053 42.93 C 92.263 34.1 86.843 30.19 80.393 32.23 L 75.753 25 C 83.263 21.57 92.943 28.46 100.163 33.68 L 100.833 34.17 C 106.583 38.33 110.893 39.09 113.253 39.09 C 113.573 39.09 113.773 39.09 114.023 39.03 C 114.313 42.15 114.623 45.49 114.913 48.57 C 112.843 49.33 108.573 48.82 102.053 42.94 M 105.053 70.83 L 100.703 64 C 104.559 60.965 106.867 56.375 107.003 51.47 C 108.917 52.451 111.024 52.997 113.173 53.07 C 113.393 53.07 113.603 53.07 113.823 53.07 C 114.303 53.025 114.778 52.938 115.243 52.81 C 115.563 60.07 112.243 65.99 105.093 70.81 M 107.623 74.19 C 116.303 68.19 120.313 60.54 119.423 51.19 C 118.483 41.42 117.153 26.58 117.153 26.57 L 117.003 25.38 L 115.893 24.87 C 109.003 21.7 94.203 11.87 93.893 11.69 C 82.633 5.47 71.713 9.38 67.143 11.59 L 59.763 0 L 52.323 11.58 C 47.733 9.36 36.813 5.49 25.453 11.78 C 25.303 11.88 10.503 21.69 3.613 24.87 L 2.503 25.38 L 2.393 26.6 C 2.393 26.6 1.053 41.45 0.123 51.22 C -0.777 60.57 3.263 68.3 12.013 74.22 C 5.543 79 -0.897 86.47 0.123 97.17 C 1.053 106.94 2.393 121.79 2.393 121.79 L 2.503 123 L 3.613 123.51 C 10.503 126.68 25.303 136.51 25.613 136.68 C 29.585 138.9 34.063 140.057 38.613 140.04 C 43.179 139.987 47.682 138.964 51.823 137.04 L 58.623 148.34 L 66.713 136.53 C 71.111 138.758 75.963 139.946 80.893 140 C 85.507 140.011 90.046 138.833 94.073 136.58 C 94.233 136.48 109.073 126.67 115.923 123.5 L 117.003 123 L 117.113 121.77 C 117.113 121.77 118.443 106.93 119.383 97.15 C 120.263 87.85 116.263 80.15 107.583 74.15" fill="rgb(35,31,32)"/><path d=" M 68.623 86.64 L 45.793 86.64 L 45.793 76.4 L 68.623 76.4 C 70.452 76.4 72.142 77.376 73.057 78.96 C 73.972 80.544 73.972 82.496 73.057 84.08 C 72.142 85.664 70.452 86.64 68.623 86.64 Z  M 45.793 61.76 L 68.623 61.76 C 70.504 61.677 72.28 62.633 73.245 64.25 C 74.211 65.867 74.211 67.883 73.245 69.5 C 72.28 71.117 70.504 72.073 68.623 71.99 L 45.793 71.99 L 45.793 61.76 Z  M 74.363 74.19 C 77.52 71.752 78.77 67.572 77.471 63.8 C 76.171 60.029 72.612 57.506 68.623 57.53 L 41.563 57.53 L 41.563 90.86 L 68.623 90.86 C 72.611 90.877 76.166 88.352 77.464 84.581 C 78.763 80.811 77.516 76.632 74.363 74.19 Z " fill="rgb(35,31,32)"/></g></g></svg>